<svg width="220" height="53" viewBox="0 0 220 53" fill="none" xmlns="http://www.w3.org/2000/svg">
<path d="M219.199 5.60951C219.855 4.39472 219.402 2.87795 218.187 2.22172C216.973 1.56548 215.456 2.01828 214.8 3.23307L219.199 5.60951ZM3.27865 0.500143C1.89801 0.514952 0.790794 1.64618 0.805614 3.02681L1.04693 25.5255C1.06175 26.9062 2.19297 28.0134 3.57361 27.9986C4.95423 27.9838 6.06145 26.8525 6.04665 25.4719L5.83213 5.47304L25.831 5.25853C27.2116 5.24372 28.3188 4.11249 28.304 2.73186C28.2892 1.35123 27.158 0.24401 25.7774 0.258818L3.27865 0.500143ZM214.8 3.23307C195.051 39.7909 154.42 50.6314 112.3 46.4815C70.1875 42.3324 27.5565 23.2381 5.05417 1.21337L1.55676 4.78663C25.0214 27.7533 68.7907 47.219 111.81 51.4575C154.822 55.6952 198.054 44.7506 219.199 5.60951L214.8 3.23307Z" fill="#7D62DE"/>
</svg>
