<svg width="435" height="423" viewBox="0 0 435 423" fill="none" xmlns="http://www.w3.org/2000/svg">
<rect width="435" height="423" rx="27" fill="#4CD63A" fill-opacity="0.98"/>
<mask id="path-2-outside-1_3772_2284" maskUnits="userSpaceOnUse" x="113" y="36" width="198" height="236" fill="black">
<rect fill="white" x="113" y="36" width="198" height="236"/>
<path d="M291.511 266.76C289.518 266.76 288.215 265.917 287.601 264.23C286.988 262.543 286.681 259.4 286.681 254.8V244.91C286.681 232.49 287.755 198.833 289.901 143.94C290.208 131.52 290.591 119.33 291.051 107.37C291.511 95.41 291.818 85.5967 291.971 77.93C285.378 92.65 275.258 113.12 261.611 139.34C248.118 165.56 239.915 181.43 237.001 186.95C230.255 199.677 223.431 212.787 216.531 226.28C214.998 229.5 213.081 231.11 210.781 231.11C208.635 231.11 207.101 230.037 206.181 227.89L197.901 189.71C183.948 127.303 175.361 88.2033 172.141 72.41C168.615 90.1967 164.935 107.217 161.101 123.47C157.421 139.57 152.668 159.58 146.841 183.5C144.695 192.547 142.088 203.51 139.021 216.39C135.955 229.27 132.428 244.45 128.441 261.93C126.755 264.997 124.608 266.53 122.001 266.53C119.701 266.53 118.398 264.997 118.091 261.93C120.698 247.517 124.378 229.73 129.131 208.57C133.885 187.41 138.638 166.863 143.391 146.93C148.145 126.843 151.288 113.427 152.821 106.68L166.851 47.11C167.311 45.5767 168.155 44.2733 169.381 43.2C170.761 42.1267 172.065 41.59 173.291 41.59C175.285 41.59 176.665 42.8933 177.431 45.5C180.038 56.8467 186.325 85.4433 196.291 131.29C202.271 161.19 207.715 186.337 212.621 206.73C219.828 194.463 228.721 178.057 239.301 157.51C249.881 136.963 264.141 108.98 282.081 73.56C286.681 64.0533 291.128 55.16 295.421 46.88C297.261 43.2 299.485 41.36 302.091 41.36C304.545 41.36 305.771 42.51 305.771 44.81L305.311 51.02C301.018 124.007 298.565 192.163 297.951 255.49C298.411 256.103 298.641 256.947 298.641 258.02C298.641 260.013 297.875 262.007 296.341 264C294.961 265.84 293.351 266.76 291.511 266.76Z"/>
</mask>
<path d="M291.511 266.76C289.518 266.76 288.215 265.917 287.601 264.23C286.988 262.543 286.681 259.4 286.681 254.8V244.91C286.681 232.49 287.755 198.833 289.901 143.94C290.208 131.52 290.591 119.33 291.051 107.37C291.511 95.41 291.818 85.5967 291.971 77.93C285.378 92.65 275.258 113.12 261.611 139.34C248.118 165.56 239.915 181.43 237.001 186.95C230.255 199.677 223.431 212.787 216.531 226.28C214.998 229.5 213.081 231.11 210.781 231.11C208.635 231.11 207.101 230.037 206.181 227.89L197.901 189.71C183.948 127.303 175.361 88.2033 172.141 72.41C168.615 90.1967 164.935 107.217 161.101 123.47C157.421 139.57 152.668 159.58 146.841 183.5C144.695 192.547 142.088 203.51 139.021 216.39C135.955 229.27 132.428 244.45 128.441 261.93C126.755 264.997 124.608 266.53 122.001 266.53C119.701 266.53 118.398 264.997 118.091 261.93C120.698 247.517 124.378 229.73 129.131 208.57C133.885 187.41 138.638 166.863 143.391 146.93C148.145 126.843 151.288 113.427 152.821 106.68L166.851 47.11C167.311 45.5767 168.155 44.2733 169.381 43.2C170.761 42.1267 172.065 41.59 173.291 41.59C175.285 41.59 176.665 42.8933 177.431 45.5C180.038 56.8467 186.325 85.4433 196.291 131.29C202.271 161.19 207.715 186.337 212.621 206.73C219.828 194.463 228.721 178.057 239.301 157.51C249.881 136.963 264.141 108.98 282.081 73.56C286.681 64.0533 291.128 55.16 295.421 46.88C297.261 43.2 299.485 41.36 302.091 41.36C304.545 41.36 305.771 42.51 305.771 44.81L305.311 51.02C301.018 124.007 298.565 192.163 297.951 255.49C298.411 256.103 298.641 256.947 298.641 258.02C298.641 260.013 297.875 262.007 296.341 264C294.961 265.84 293.351 266.76 291.511 266.76Z" fill="black"/>
<path d="M287.601 264.23L292.3 262.521L292.3 262.521L287.601 264.23ZM289.901 143.94L294.898 144.135L294.899 144.099L294.9 144.063L289.901 143.94ZM291.051 107.37L296.048 107.562L296.048 107.562L291.051 107.37ZM291.971 77.93L296.97 78.03L287.408 75.8861L291.971 77.93ZM261.611 139.34L257.176 137.032L257.171 137.042L257.166 137.052L261.611 139.34ZM237.001 186.95L241.419 189.292L241.423 189.284L237.001 186.95ZM216.531 226.28L212.08 224.004L212.048 224.067L212.017 224.13L216.531 226.28ZM206.181 227.89L201.295 228.95L201.397 229.419L201.586 229.86L206.181 227.89ZM197.901 189.71L202.788 188.65L202.785 188.635L202.781 188.619L197.901 189.71ZM172.141 72.41L177.041 71.4111L167.237 71.4375L172.141 72.41ZM161.101 123.47L156.235 122.322L156.231 122.339L156.227 122.356L161.101 123.47ZM146.841 183.5L141.984 182.317L141.98 182.331L141.977 182.346L146.841 183.5ZM139.021 216.39L134.157 215.232L134.157 215.232L139.021 216.39ZM128.441 261.93L132.823 264.34L133.16 263.725L133.316 263.042L128.441 261.93ZM118.091 261.93L113.171 261.04L113.047 261.73L113.116 262.428L118.091 261.93ZM129.131 208.57L124.253 207.474L129.131 208.57ZM143.391 146.93L148.255 148.09L148.257 148.081L143.391 146.93ZM152.821 106.68L147.955 105.534L147.95 105.553L147.946 105.572L152.821 106.68ZM166.851 47.11L162.062 45.6733L162.019 45.8173L161.985 45.9638L166.851 47.11ZM169.381 43.2L166.312 39.2532L166.198 39.342L166.089 39.4371L169.381 43.2ZM177.431 45.5L182.305 44.3805L182.271 44.2337L182.228 44.0892L177.431 45.5ZM196.291 131.29L201.194 130.309L201.186 130.269L201.177 130.228L196.291 131.29ZM212.621 206.73L207.76 207.9L210.658 219.943L216.933 209.263L212.621 206.73ZM239.301 157.51L234.856 155.221L234.856 155.221L239.301 157.51ZM282.081 73.56L286.542 75.8192L286.563 75.7787L286.582 75.7378L282.081 73.56ZM295.421 46.88L299.86 49.1816L299.877 49.1489L299.894 49.1161L295.421 46.88ZM305.771 44.81L310.758 45.1793L310.771 44.9949V44.81H305.771ZM305.311 51.02L300.325 50.6506L300.322 50.6885L300.32 50.7264L305.311 51.02ZM297.951 255.49L292.952 255.442L292.935 257.135L293.951 258.49L297.951 255.49ZM296.341 264L292.378 260.951L292.36 260.976L292.341 261L296.341 264ZM291.511 261.76C291.208 261.76 291.397 261.698 291.755 261.93C291.929 262.042 292.073 262.181 292.176 262.318C292.275 262.448 292.305 262.533 292.3 262.521L282.903 265.939C283.521 267.639 284.618 269.223 286.323 270.325C287.984 271.401 289.822 271.76 291.511 271.76V261.76ZM292.3 262.521C292.026 261.765 291.681 259.453 291.681 254.8H281.681C281.681 259.347 281.951 263.322 282.903 265.939L292.3 262.521ZM291.681 254.8V244.91H281.681V254.8H291.681ZM291.681 244.91C291.681 232.611 292.749 199.072 294.898 144.135L284.905 143.745C282.76 198.595 281.681 232.369 281.681 244.91H291.681ZM294.9 144.063C295.206 131.665 295.589 119.498 296.048 107.562L286.055 107.178C285.594 119.162 285.21 131.375 284.903 143.817L294.9 144.063ZM296.048 107.562C296.508 95.5864 296.816 85.7394 296.97 78.03L286.972 77.83C286.82 85.4539 286.515 95.2336 286.055 107.178L296.048 107.562ZM287.408 75.8861C280.875 90.4718 270.808 110.84 257.176 137.032L266.047 141.648C279.708 115.4 289.881 94.8282 296.535 79.9739L287.408 75.8861ZM257.166 137.052C243.667 163.283 235.478 179.125 232.58 184.616L241.423 189.284C244.352 183.735 252.57 167.837 266.057 141.628L257.166 137.052ZM232.584 184.608C225.825 197.358 218.99 210.489 212.08 224.004L220.983 228.556C227.873 215.084 234.685 201.996 241.419 189.292L232.584 184.608ZM212.017 224.13C211.437 225.349 210.957 225.881 210.728 226.074C210.63 226.157 210.603 226.155 210.651 226.137C210.705 226.117 210.759 226.11 210.781 226.11V236.11C215.96 236.11 219.19 232.326 221.046 228.43L212.017 224.13ZM210.781 226.11C210.663 226.11 210.641 226.095 210.686 226.109C210.708 226.115 210.741 226.126 210.779 226.145C210.817 226.163 210.855 226.185 210.889 226.209C210.961 226.26 210.983 226.294 210.964 226.269C210.941 226.238 210.87 226.136 210.777 225.92L201.586 229.86C202.322 231.578 203.456 233.212 205.154 234.401C206.881 235.61 208.838 236.11 210.781 236.11V226.11ZM211.068 226.83L202.788 188.65L193.015 190.77L201.295 228.95L211.068 226.83ZM202.781 188.619C188.824 126.195 180.249 87.1479 177.041 71.4111L167.242 73.4089C170.474 89.2587 179.072 128.411 193.022 190.801L202.781 188.619ZM167.237 71.4375C163.721 89.1705 160.054 106.132 156.235 122.322L165.968 124.618C169.816 108.302 173.509 91.2228 177.046 73.3824L167.237 71.4375ZM156.227 122.356C152.554 138.425 147.807 158.41 141.984 182.317L151.699 184.683C157.529 160.75 162.289 140.715 165.976 124.584L156.227 122.356ZM141.977 182.346C139.83 191.391 137.224 202.353 134.157 215.232L143.886 217.548C146.952 204.667 149.559 193.703 151.706 184.654L141.977 182.346ZM134.157 215.232C131.086 228.132 127.556 243.328 123.567 260.818L133.316 263.042C137.301 245.572 140.824 230.408 143.886 217.548L134.157 215.232ZM124.06 259.52C123.466 260.602 122.959 261.098 122.66 261.311C122.424 261.48 122.249 261.53 122.001 261.53V271.53C127.05 271.53 130.602 268.377 132.823 264.34L124.06 259.52ZM122.001 261.53C121.983 261.53 122.154 261.528 122.421 261.642C122.706 261.763 122.946 261.95 123.109 262.142C123.255 262.314 123.267 262.404 123.228 262.291C123.186 262.172 123.114 261.904 123.067 261.432L113.116 262.428C113.321 264.47 113.915 266.766 115.489 268.618C117.233 270.669 119.619 271.53 122.001 271.53V261.53ZM123.012 262.82C125.601 248.5 129.265 230.787 134.01 209.666L124.253 207.474C119.491 228.673 115.795 246.534 113.171 261.04L123.012 262.82ZM134.01 209.666C138.759 188.526 143.507 168.001 148.255 148.09L138.528 145.77C133.769 165.726 129.011 186.294 124.253 207.474L134.01 209.666ZM148.257 148.081C153.01 127.998 156.158 114.56 157.697 107.788L147.946 105.572C146.418 112.293 143.28 125.688 138.526 145.779L148.257 148.081ZM157.688 107.826L171.718 48.2562L161.985 45.9638L147.955 105.534L157.688 107.826ZM171.641 48.5467C171.825 47.9312 172.141 47.4289 172.674 46.9629L166.089 39.4371C164.168 41.1178 162.798 43.2221 162.062 45.6733L171.641 48.5467ZM172.451 47.1467C173.317 46.4734 173.563 46.59 173.291 46.59V36.59C170.567 36.59 168.206 37.7799 166.312 39.2532L172.451 47.1467ZM173.291 46.59C173.237 46.59 173.079 46.5792 172.869 46.4983C172.656 46.4158 172.491 46.2998 172.388 46.2025C172.295 46.1145 172.298 46.0856 172.359 46.1957C172.421 46.3088 172.524 46.5329 172.635 46.9108L182.228 44.0892C181.697 42.2823 180.807 40.3987 179.255 38.9324C177.586 37.3569 175.494 36.59 173.291 36.59V46.59ZM172.558 46.6195C175.157 57.931 181.437 86.4946 191.406 132.352L201.177 130.228C191.213 84.392 184.919 55.7623 182.305 44.3805L172.558 46.6195ZM191.389 132.271C197.376 162.208 202.833 187.422 207.76 207.9L217.483 205.56C212.596 185.251 207.167 160.172 201.194 130.309L191.389 132.271ZM216.933 209.263C224.206 196.883 233.147 180.384 243.747 159.799L234.856 155.221C224.296 175.729 215.45 192.044 208.31 204.197L216.933 209.263ZM243.747 159.799C254.334 139.238 268.6 111.243 286.542 75.8192L277.621 71.3008C259.683 106.717 245.429 134.689 234.856 155.221L243.747 159.799ZM286.582 75.7378C291.165 66.2674 295.591 57.4157 299.86 49.1816L290.983 44.5784C286.666 52.9043 282.198 61.8393 277.581 71.3822L286.582 75.7378ZM299.894 49.1161C300.625 47.6529 301.258 46.9219 301.657 46.592C301.974 46.3292 302.078 46.36 302.091 46.36V36.36C296.635 36.36 293.101 40.3401 290.949 44.6439L299.894 49.1161ZM302.091 46.36C302.625 46.36 302.094 46.4913 301.432 45.8702C301.106 45.5651 300.92 45.2274 300.83 44.9757C300.751 44.7514 300.771 44.6657 300.771 44.81H310.771C310.771 42.8037 310.221 40.4028 308.271 38.5748C306.382 36.8036 304.011 36.36 302.091 36.36V46.36ZM300.785 44.4406L300.325 50.6506L310.298 51.3894L310.758 45.1793L300.785 44.4406ZM300.32 50.7264C296.023 123.783 293.566 192.022 292.952 255.442L302.951 255.538C303.564 192.305 306.014 124.231 310.303 51.3136L300.32 50.7264ZM293.951 258.49C293.754 258.227 293.673 258 293.645 257.898C293.62 257.807 293.641 257.831 293.641 258.02H303.641C303.641 256.287 303.275 254.255 301.951 252.49L293.951 258.49ZM293.641 258.02C293.641 258.65 293.418 259.6 292.378 260.951L300.305 267.049C302.332 264.413 303.641 261.377 303.641 258.02H293.641ZM292.341 261C291.966 261.501 291.706 261.678 291.618 261.729C291.596 261.742 291.581 261.749 291.573 261.752C291.565 261.755 291.561 261.756 291.56 261.756C291.559 261.757 291.556 261.757 291.551 261.758C291.545 261.759 291.533 261.76 291.511 261.76V271.76C295.316 271.76 298.279 269.75 300.341 267L292.341 261Z" fill="black" mask="url(#path-2-outside-1_3772_2284)"/>
<path d="M371.94 315.795C374.612 310.947 372.857 304.877 368.021 302.237C363.184 299.597 357.098 301.388 354.426 306.236L371.94 315.795ZM63.8347 280.547C58.3563 279.863 53.3329 283.749 52.6146 289.227L40.9085 378.494C40.1902 383.972 44.0489 388.967 49.5273 389.651C55.0057 390.335 60.0291 386.449 60.7475 380.972L71.1529 301.623L150.509 311.533C155.987 312.218 161.011 308.331 161.729 302.854C162.447 297.376 158.589 292.38 153.11 291.696L63.8347 280.547ZM354.426 306.236C324.201 361.085 269.163 374.825 212.257 364.807C154.969 354.721 98.6229 320.776 70.4679 284.328L54.6002 296.603C86.1071 337.39 147.06 373.649 208.668 384.495C270.66 395.409 336.115 380.806 371.94 315.795L354.426 306.236Z" fill="#7D62DE"/>
</svg>
